<svg width="22" height="22" viewBox="0 0 22 22" fill="none" xmlns="http://www.w3.org/2000/svg">
<path d="M10.6746 19.1681L10.6686 19.1649L10.6478 19.1537C10.6301 19.144 10.6048 19.1302 10.5724 19.1121C10.5077 19.076 10.4145 19.0231 10.2969 18.9539C10.0618 18.8156 9.72874 18.6119 9.33034 18.3471C8.53485 17.8183 7.47195 17.0409 6.40621 16.0475C4.29716 14.0814 2.0625 11.1605 2.0625 7.5625C2.0625 4.87845 4.3208 2.75 7.04688 2.75C8.65002 2.75 10.0855 3.4825 11 4.63063C11.9145 3.4825 13.35 2.75 14.9531 2.75C17.6792 2.75 19.9375 4.87845 19.9375 7.5625C19.9375 11.1605 17.7028 14.0814 15.5938 16.0475C14.5281 17.0409 13.4652 17.8183 12.6697 18.3471C12.2713 18.6119 11.9382 18.8156 11.7031 18.9539C11.5855 19.0231 11.4923 19.076 11.4276 19.1121C11.3952 19.1302 11.3699 19.144 11.3522 19.1537L11.3314 19.1649L11.3254 19.1681L11.3229 19.1694C11.1213 19.2765 10.8787 19.2765 10.6771 19.1694L10.6746 19.1681Z" fill="#FFA1A5"/>
</svg>
