<svg width="19" height="18" viewBox="0 0 19 18" fill="none" xmlns="http://www.w3.org/2000/svg">
<path d="M10.3249 9.89939V12.7756C10.7997 12.6879 11.2319 12.5251 11.5763 12.2999C12.1067 11.9531 12.2499 11.5872 12.2499 11.3375C12.2499 11.0878 12.1067 10.722 11.5763 10.3751C11.2319 10.15 10.7997 9.9871 10.3249 9.89939Z" fill="#262626"/>
<path d="M7.66252 7.48143C7.72166 7.54299 7.78905 7.6036 7.8654 7.66259C8.09412 7.83933 8.37086 7.97456 8.67495 8.0616V5.26348C8.59295 5.28695 8.51293 5.31393 8.43531 5.34428C8.38588 5.3636 8.33742 5.3843 8.29003 5.40633C8.13591 5.47799 7.99316 5.56376 7.8654 5.66249C7.45018 5.98334 7.29995 6.3518 7.29995 6.66254C7.29995 6.86477 7.36358 7.09144 7.52246 7.31352C7.56282 7.36995 7.60934 7.42607 7.66252 7.48143Z" fill="#262626"/>
<path fill-rule="evenodd" clip-rule="evenodd" d="M18.3 9.00001C18.3 13.8601 14.3601 17.8 9.49995 17.8C4.63985 17.8 0.699951 13.8601 0.699951 9.00001C0.699951 4.13991 4.63985 0.200012 9.49995 0.200012C14.3601 0.200012 18.3 4.13991 18.3 9.00001ZM9.49988 2.40001C9.95552 2.40001 10.3249 2.76938 10.3249 3.22501V3.57243C10.9764 3.68817 11.61 3.94471 12.1433 4.35684C12.6122 4.71913 12.9613 5.17021 13.161 5.67687C13.3281 6.10077 13.1199 6.57985 12.696 6.74693C12.2721 6.91401 11.793 6.70581 11.6259 6.28192C11.5459 6.07882 11.3919 5.86144 11.1344 5.66246C10.9057 5.48572 10.629 5.35049 10.3249 5.26345V8.2294C11.0928 8.33158 11.8459 8.58003 12.4793 8.99415C13.345 9.56019 13.8999 10.3908 13.8999 11.3375C13.8999 12.2842 13.345 13.1148 12.4793 13.6809C11.8459 14.095 11.0928 14.3434 10.3249 14.4456V14.775C10.3249 15.2306 9.95552 15.6 9.49988 15.6C9.04425 15.6 8.67488 15.2306 8.67488 14.775V14.4456C7.907 14.3434 7.15387 14.095 6.52051 13.6809C5.98971 13.3338 5.57702 12.8914 5.33466 12.3739C5.14142 11.9613 5.31926 11.4701 5.73189 11.2769C6.14451 11.0836 6.63567 11.2615 6.82891 11.6741C6.91779 11.8639 7.09856 12.0874 7.42347 12.2999C7.76785 12.5251 8.20008 12.6879 8.67488 12.7756V9.75259C8.02334 9.63685 7.38979 9.38032 6.85644 8.96818C6.09032 8.37618 5.64988 7.5482 5.64988 6.66251C5.64988 5.77682 6.09032 4.94884 6.85644 4.35684C7.38979 3.94471 8.02334 3.68817 8.67488 3.57243V3.22501C8.67488 2.76938 9.04425 2.40001 9.49988 2.40001Z" fill="#262626"/>
</svg>
