<svg width="10" height="12" viewBox="0 0 10 12" fill="none" xmlns="http://www.w3.org/2000/svg">
<path fill-rule="evenodd" clip-rule="evenodd" d="M9.76983 0.209376C10.0684 0.496471 10.0777 0.971254 9.79062 1.26983L5.54062 5.76983C5.39922 5.91689 5.20401 6 5 6C4.79599 6 4.60078 5.91689 4.45937 5.76983L0.209374 1.26983C-0.0777207 0.971254 -0.0684109 0.496471 0.230167 0.209376C0.528747 -0.0777189 1.00353 -0.0684095 1.29062 0.230169L5 4.16792L8.70937 0.230169C8.99647 -0.0684095 9.47125 -0.077719 9.76983 0.209376ZM9.76983 6.20938C10.0684 6.49647 10.0777 6.97125 9.79062 7.26983L5.54062 11.7698C5.39922 11.9169 5.20401 12 5 12C4.79599 12 4.60078 11.9169 4.45937 11.7698L0.209374 7.26983C-0.0777209 6.97125 -0.0684112 6.49647 0.230167 6.20938C0.528746 5.92228 1.00353 5.93159 1.29062 6.23017L5 10.1679L8.70937 6.23017C8.99647 5.93159 9.47125 5.92228 9.76983 6.20938Z" fill="#D1D5DB"/>
</svg>
