<svg width="12" height="13" viewBox="0 0 12 13" fill="none" xmlns="http://www.w3.org/2000/svg">
<path fill-rule="evenodd" clip-rule="evenodd" d="M0.558058 1.05806C0.802136 0.813981 1.19786 0.813981 1.44194 1.05806L6 5.61612L10.5581 1.05806C10.8021 0.813981 11.1979 0.813981 11.4419 1.05806C11.686 1.30214 11.686 1.69786 11.4419 1.94194L6.88388 6.5L11.4419 11.0581C11.686 11.3021 11.686 11.6979 11.4419 11.9419C11.1979 12.186 10.8021 12.186 10.5581 11.9419L6 7.38388L1.44194 11.9419C1.19786 12.186 0.802136 12.186 0.558058 11.9419C0.313981 11.6979 0.313981 11.3021 0.558058 11.0581L5.11612 6.5L0.558058 1.94194C0.313981 1.69786 0.313981 1.30214 0.558058 1.05806Z" fill="#9CA3AF"/>
</svg>
